Coordinates
version=1
nRows=11
nColumns=40
inDegrees=yes

Units are S.I. units (second, meters, Newtons, ...)
Angles are in degrees.

endheader
time	pelvis_tilt	pelvis_list	pelvis_rotation	pelvis_tx	pelvis_ty	pelvis_tz	hip_flexion_r	hip_adduction_r	hip_rotation_r	knee_angle_r	knee_angle_r_beta	ankle_angle_r	subtalar_angle_r	mtp_angle_r	hip_flexion_l	hip_adduction_l	hip_rotation_l	knee_angle_l	knee_angle_l_beta	ankle_angle_l	subtalar_angle_l	mtp_angle_l	lumbar_extension	lumbar_bending	lumbar_rotation	arm_flex_r	arm_add_r	arm_rot_r	elbow_flex_r	pro_sup_r	wrist_flex_r	wrist_dev_r	arm_flex_l	arm_add_l	arm_rot_l	elbow_flex_l	pro_sup_l	wrist_flex_l	wrist_dev_l
      4.43000000	     -5.08969765	     -3.53051115	     -1.99117898	      0.92251767	      0.92232670	      0.45088009	     26.78151202	     -1.58770709	    -16.03107977	     10.42379593	     10.42379593	      2.61517935	      7.62167702	     10.36177989	     -0.91636213	     -3.27738103	    -10.96036190	     11.34937455	     11.34937455	     18.33489850	     -3.91315440	     -3.23852541	     -9.96617071	      3.68029218	      2.80679127	    -15.48294629	    -12.60831939	    -11.16743981	     25.31086634	     46.93880045	      0.00000000	      0.00000000	     14.39691937	    -15.36458929	    -14.13770438	     87.84323963	     47.61357715	      0.00000000	      0.00000000
      4.44285714	     -5.14502581	     -3.52100813	     -2.06265059	      0.92364516	      0.92098385	      0.45328799	     26.46714850	     -1.28763318	    -16.22015238	     10.61428208	     10.61428208	      2.45083399	      7.63795900	     10.26770661	     -1.46644212	     -3.41692694	    -11.01899044	     11.43073923	     11.43073923	     18.69339898	     -3.95534565	     -3.29661382	     -9.71941287	      3.69701278	      2.89329872	    -15.26561492	    -12.42371002	    -11.14923365	     25.40330140	     46.93380559	      0.00000000	      0.00000000	     14.04044247	    -15.18406999	    -14.03270072	     87.80182754	     47.60623568	      0.00000000	      0.00000000
      4.45571429	     -5.08336820	     -3.65878654	     -2.09198358	      0.92499747	      0.91998684	      0.45571018	     26.01894972	     -0.91380396	    -16.33383634	     11.05631937	     11.05631937	      2.19447917	      7.62231296	      9.88911180	     -2.09759404	     -3.74712933	    -11.08439917	     11.63170905	     11.63170905	     19.05696533	     -3.90765833	     -3.27159593	     -9.61384860	      3.94407016	      2.94681420	    -14.89293953	    -12.34099636	    -11.13891459	     25.55773629	     46.92797046	      0.00000000	      0.00000000	     13.43767384	    -14.90868952	    -13.83743512	     87.67983188	     47.59154415	      0.00000000	      0.00000000
      4.46857143	     -4.95960602	     -3.73459556	     -2.06611876	      0.92655832	      0.91891552	      0.45839789	     25.33476483	     -0.51318313	    -15.95195446	     11.11795142	     11.11795142	     -0.50027945	      6.62981265	      2.38530428	     -2.37065544	     -4.31092719	    -12.26636323	     12.86447777	     12.86447777	     21.08965138	     -1.67113455	     -0.89580936	     -9.56477394	      4.06111316	      2.53707335	    -14.21527644	    -12.35883885	    -10.90291618	     25.77732657	     46.87210270	      0.00000000	      0.00000000	     12.39388623	    -15.07068053	    -13.82947296	     88.09420426	     47.67416899	      0.00000000	      0.00000000
      4.48142857	     -4.87988450	     -3.86004629	     -2.07805508	      0.92797128	      0.91841316	      0.46099369	     24.91225704	     -0.21588466	    -15.83004122	     11.81342025	     11.81342025	     -0.70862915	      6.44125754	      2.18016602	     -2.89231094	     -4.66145671	    -12.19363247	     13.28754900	     13.28754900	     21.27384912	     -1.89589316	     -0.94038476	     -9.52508356	      4.29875007	      2.67813454	    -13.60478773	    -12.25405261	    -10.86687615	     26.01713912	     46.86296631	      0.00000000	      0.00000000	     11.74096951	    -14.64022139	    -13.60049418	     87.72905460	     47.65142684	      0.00000000	      0.00000000
      4.49428571	     -4.90345229	     -3.97260582	     -1.98175129	      0.92913449	      0.91772444	      0.46363888	     24.93538602	      0.00065042	    -15.27199008	     13.09996008	     13.09996008	     -0.89865955	      5.19087492	      1.05139212	     -2.79136113	     -5.16961780	    -12.13271874	     14.64840990	     14.64840990	     21.68962436	     -2.07663386	     -1.01660608	     -9.34794822	      4.53350232	      2.36139569	    -12.80358807	    -12.32714238	    -10.81248084	     26.42577094	     46.84299682	      0.00000000	      0.00000000	     11.09238733	    -14.66021983	    -13.46721881	     86.74489438	     47.63316326	      0.00000000	      0.00000000
      4.50714286	     -4.88592471	     -4.12890407	     -1.92834067	      0.93041314	      0.91754162	      0.46652484	     24.70104454	      0.35076823	    -14.62994729	     13.94355793	     13.94355793	     -1.11273041	      4.04099367	     -0.10570612	     -2.65731850	     -5.78359833	    -12.24899035	     16.17030684	     16.17030684	     21.95347452	     -2.15909033	     -1.08369593	     -9.21101981	      4.74871920	      2.21111298	    -11.96238038	    -12.29463528	    -10.70284849	     26.87354286	     46.81584406	      0.00000000	      0.00000000	     10.37191020	    -14.30418274	    -13.26079184	     85.72746163	     47.61043988	      0.00000000	      0.00000000
      4.52000000	     -4.59695939	     -4.18923711	     -1.91681108	      0.93184306	      0.91832767	      0.46927340	     24.05809067	      0.55137537	    -14.29023828	     14.57702487	     14.57702487	     -1.00189102	      3.74586893	     -0.47016693	     -2.96187866	     -6.19354581	    -12.18356866	     17.37104772	     17.37104772	     21.86686767	     -2.50407043	     -1.21117375	     -9.49997560	      4.93154074	      2.41248622	    -11.04043295	    -12.28963556	    -10.66234122	     27.26696872	     46.80240062	      0.00000000	      0.00000000	      9.52095617	    -13.69196735	    -12.96211820	     85.07791924	     47.57693758	      0.00000000	      0.00000000
      4.53285714	     -4.73124301	     -4.39851717	     -1.75175703	      0.93271912	      0.91845523	      0.47231202	     24.01344330	      0.97648730	    -13.54273788	     15.33922370	     15.33922370	     -1.00786128	      1.98515185	     -1.57147736	     -1.94129653	     -7.09139533	    -12.11648055	     20.13086175	     20.13086175	     21.76456749	     -2.81336355	     -2.01638694	     -9.24177734	      5.26948952	      2.09836876	     -9.98905149	    -12.38138134	    -10.50330912	     28.10770819	     46.75246921	      0.00000000	      0.00000000	      8.94272656	    -13.53045452	    -12.92446982	     83.00980900	     47.55258339	      0.00000000	      0.00000000
      4.54571429	     -4.31723009	     -4.30623833	     -1.78463958	      0.93410052	      0.92011329	      0.47532299	     23.11931830	      1.07218495	    -13.17404328	     15.68813337	     15.68813337	     -0.52105713	      1.87796338	     -1.85113411	     -1.96536578	     -7.44762866	    -12.05781034	     22.03675876	     22.03675876	     21.14356155	     -3.41637710	     -2.25179360	     -9.71144121	      5.15214910	      2.37057049	     -8.89644773	    -12.32618590	    -10.46133961	     28.60946597	     46.73580390	      0.00000000	      0.00000000	      8.00260549	    -12.82679314	    -12.59356725	     82.22036391	     47.51288561	      0.00000000	      0.00000000
      4.55857143	     -4.52134260	     -4.69946872	     -1.53376282	      0.93457758	      0.92055097	      0.47851716	     22.93610124	      1.71933309	    -12.71026659	     15.96341528	     15.96341528	     -0.39486166	      0.34095133	     -2.61558726	     -0.33113552	     -8.61173523	    -11.41212949	     25.47884381	     25.47884381	     19.13769173	     -5.14245358	     -6.39702782	     -9.38773147	      5.72453625	      2.38366292	     -8.38283565	    -12.60332020	     -9.91445942	     30.78600957	     46.57190884	      0.00000000	      0.00000000	      8.28749624	    -12.32446237	    -12.51827165	     78.32225124	     47.49083213	      0.00000000	      0.00000000
